<?xml version="1.0" encoding="utf-8"?>
<!-- Generator: Adobe Illustrator 26.0.3, SVG Export Plug-In . SVG Version: 6.00 Build 0)  -->
<svg version="1.1" xmlns="http://www.w3.org/2000/svg" xmlns:xlink="http://www.w3.org/1999/xlink" x="0px" y="0px" width="1280px"
	 height="1024px" viewBox="0 0 1280 1024" style="enable-background:new 0 0 1280 1024;" xml:space="preserve">
<g id="Слой_1">
	
		<image style="overflow:visible;enable-background:new    ;" width="1311" height="1050" xlink:href="Table.png"  transform="matrix(1.0068 0 0 1.0068 -8.8889 -5)">
	</image>
</g>
<g id="table5">
	
		<image style="overflow:visible;enable-background:new    ;" width="528" height="517" xlink:href="BA5F0D8E.png"  transform="matrix(0.2745 0 0 0.2745 877.0014 698.9985)">
	</image>
</g>
<g id="table4">
	
		<image style="overflow:visible;enable-background:new    ;" width="539" height="517" xlink:href="BA5F0D88.png"  transform="matrix(0.2745 0 0 0.2745 535.0028 694.9971)">
	</image>
</g>
<g id="table3">
	
		<image style="overflow:visible;enable-background:new    ;" width="541" height="515" xlink:href="BA5F0D89.png"  transform="matrix(0.2722 0 0 0.2722 214.9415 700.0614)">
	</image>
</g>
<g id="table2">
	
		<image style="overflow:visible;enable-background:new    ;" width="387" height="516" xlink:href="BA5F0D96.png"  transform="matrix(0.4284 0 0 0.4284 908.1029 70.9228)">
	</image>
</g>
<g id="table1">
	
		<image style="overflow:visible;enable-background:new    ;" width="376" height="516" xlink:href="BA5F0D99.png"  transform="matrix(0.4272 0 0 0.4272 212.1017 71.9258)">
	</image>
</g>
<g id="Слой_7">
	<g id="Слой_5">
		
			<image style="overflow:visible;enable-background:new    ;" width="3529" height="3046" xlink:href="BA5F0D9B.png"  transform="matrix(0.2398 0 0 0.2398 218 110)">
		</image>
	</g>
</g>
</svg>
